<?xml version="1.0" encoding="iso-8859-1"?>
<!-- Uploaded to: SVG Repo, www.svgrepo.com, Generator: SVG Repo Mixer Tools -->
<svg height="800px" width="800px" version="1.1" id="Layer_1" xmlns="http://www.w3.org/2000/svg" xmlns:xlink="http://www.w3.org/1999/xlink" 
	 viewBox="0 0 512 512" xml:space="preserve">
<g>
	<path style="fill:#6FB0B6;" d="M153.6,396.8l-5.726-24.252C188.8,352.094,243.2,309.786,243.2,179.2h25.6
		c0,130.586,54.4,172.894,95.326,193.348L358.4,396.8H153.6z"/>
	<circle style="fill:#6FB0B6;" cx="256" cy="38.4" r="25.6"/>
</g>
<g>
	<path style="fill:#573A32;" d="M317.175,259.524c3.081,10.377,6.801,19.337,10.94,27.273C420.011,300.254,486.4,338.654,486.4,384
		c0,56.55-103.151,102.4-230.4,102.4S25.6,440.55,25.6,384c0-45.346,66.389-83.746,158.276-97.212
		c4.139-7.927,7.859-16.896,10.94-27.273C80.435,272.546,0,321.664,0,384c0,72.969,110.054,128,256,128s256-55.031,256-128
		C512,321.664,431.565,272.546,317.175,259.524z"/>
	<path style="fill:#573A32;" d="M281.6,179.2c0-14.14-11.46-25.6-25.6-25.6c-14.14,0-25.6,11.46-25.6,25.6
		c0,123.494-50.364,162.961-88.252,181.905c-10.615,5.308-16.196,17.229-13.466,28.783c2.731,11.546,13.047,19.712,24.917,19.712
		h204.8c11.87,0,22.187-8.166,24.917-19.721c2.731-11.554-2.85-23.467-13.466-28.783C331.964,342.161,281.6,302.694,281.6,179.2z
		 M153.6,384C204.8,358.4,256,307.2,256,179.2c0,128,51.2,179.2,102.4,204.8C332.8,384,179.2,384,153.6,384z"/>
	<circle style="fill:#573A32;" cx="256" cy="115.2" r="12.8"/>
	<path style="fill:#573A32;" d="M256,76.8c21.171,0,38.4-17.229,38.4-38.4S277.171,0,256,0c-21.171,0-38.4,17.229-38.4,38.4
		S234.829,76.8,256,76.8z M256,25.6c7.066,0,12.8,5.734,12.8,12.8s-5.734,12.8-12.8,12.8c-7.066,0-12.8-5.734-12.8-12.8
		S248.934,25.6,256,25.6z"/>
	<path style="fill:#573A32;" d="M112.691,353.357c28.425-21.171,37.487-27.068,51.55-39.066C109.542,322.91,51.2,341.948,51.2,384
		c0,74.65,183.834,76.8,204.8,76.8c20.966,0,204.8-2.15,204.8-76.8c0-42.052-58.342-61.09-113.041-69.709
		c15.531,13.056,25.813,19.772,51.55,39.066c22.434,8.55,35.891,19.132,35.891,30.643c0,28.279-80.23,51.2-179.2,51.2
		S76.8,412.279,76.8,384C76.8,372.489,90.257,361.907,112.691,353.357z"/>
</g>
</svg>